<?xml version="1.0" standalone="no"?>
<!DOCTYPE svg PUBLIC "-//W3C//DTD SVG 20010904//EN"
 "http://www.w3.org/TR/2001/REC-SVG-20010904/DTD/svg10.dtd">
<svg version="1.0" xmlns="http://www.w3.org/2000/svg"
 width="512.000000pt" height="512.000000pt" viewBox="0 0 512.000000 512.000000"
 preserveAspectRatio="xMidYMid meet">
<metadata>
Created by potrace 1.14, written by Peter Selinger 2001-2017
</metadata>
<g transform="translate(0.000000,512.000000) scale(0.100000,-0.100000)"
fill="#000000" stroke="none">
<path d="M393 5106 c-182 -44 -330 -191 -377 -373 -15 -56 -16 -269 -14 -2195
l3 -2133 22 -60 c67 -175 220 -306 393 -335 46 -8 684 -10 2180 -8 l2115 3 68
27 c166 67 279 194 322 364 14 54 15 300 13 2190 l-3 2129 -23 59 c-64 169
-213 300 -380 335 -82 17 -4248 14 -4319 -3z m2563 -900 c274 -58 465 -151
631 -309 184 -175 274 -392 275 -662 0 -306 -105 -563 -326 -793 -105 -109
-179 -164 -301 -223 -123 -60 -226 -87 -376 -99 -278 -21 -494 32 -540 133
-24 54 -24 68 1 100 24 30 51 39 209 68 157 28 276 64 340 102 129 77 226 216
272 392 29 112 38 371 15 468 -62 262 -273 409 -626 436 -67 6 -165 5 -235 0
-240 -18 -389 -62 -666 -195 -150 -73 -209 -96 -252 -101 -73 -7 -105 1 -113
31 -13 51 77 196 183 298 160 152 478 304 750 358 142 28 146 28 403 25 206
-3 250 -7 356 -29z m-697 -628 c21 -32 26 -220 12 -376 -15 -154 -61 -419
-135 -767 -82 -387 -84 -403 -110 -899 -28 -516 -29 -517 -109 -576 -72 -53
-232 -90 -388 -90 -81 0 -122 17 -144 59 -26 51 -38 212 -32 426 8 284 48 539
142 900 134 520 298 932 457 1147 116 157 265 242 307 176z"/>
</g>
</svg>
